<?xml version="1.0" encoding="UTF-8" standalone="no"?>
<svg
   xmlns:osb="http://www.openswatchbook.org/uri/2009/osb"
   xmlns:dc="http://purl.org/dc/elements/1.1/"
   xmlns:cc="http://creativecommons.org/ns#"
   xmlns:rdf="http://www.w3.org/1999/02/22-rdf-syntax-ns#"
   xmlns:svg="http://www.w3.org/2000/svg"
   xmlns="http://www.w3.org/2000/svg"
   xmlns:sodipodi="http://sodipodi.sourceforge.net/DTD/sodipodi-0.dtd"
   xmlns:inkscape="http://www.inkscape.org/namespaces/inkscape"
   id="Layer_3"
   enable-background="new 0 0 64 64"
   height="512"
   viewBox="0 0 64 64"
   width="512"
   version="1.1"
   sodipodi:docname="lab.svg"
   inkscape:version="0.92.4 5da689c313, 2019-01-14">
  <metadata
     id="metadata441">
    <rdf:RDF>
      <cc:Work
         rdf:about="">
        <dc:format>image/svg+xml</dc:format>
        <dc:type
           rdf:resource="http://purl.org/dc/dcmitype/StillImage" />
      </cc:Work>
    </rdf:RDF>
  </metadata>
  <defs
     id="defs439">
    <linearGradient
       id="linearGradient1424"
       osb:paint="solid">
      <stop
         style="stop-color:#000000;stop-opacity:1;"
         offset="0"
         id="stop1422" />
    </linearGradient>
  </defs>
  <sodipodi:namedview
     pagecolor="#ffffff"
     bordercolor="#666666"
     borderopacity="1"
     objecttolerance="10"
     gridtolerance="10"
     guidetolerance="10"
     inkscape:pageopacity="0"
     inkscape:pageshadow="2"
     inkscape:window-width="1920"
     inkscape:window-height="1006"
     id="namedview437"
     showgrid="false"
     showguides="true"
     inkscape:guide-bbox="true"
     inkscape:zoom="0.65186406"
     inkscape:cx="-137.49989"
     inkscape:cy="264.05939"
     inkscape:window-x="0"
     inkscape:window-y="0"
     inkscape:window-maximized="1"
     inkscape:current-layer="Layer_3" />
  <g
     id="g3132">
    <path
       style="fill:#58616c;stroke:none;stroke-opacity:1"
       inkscape:connector-curvature="0"
       id="path246"
       d="m 6,2 h 52 c 2.209,0 4,1.791 4,4 v 36 c 0,2.209 -1.791,4 -4,4 H 6 C 3.791,46 2,44.209 2,42 V 6 C 2,3.791 3.791,2 6,2 Z" />
    <path
       style="fill:#758190;stroke:none;stroke-opacity:1"
       inkscape:connector-curvature="0"
       id="path250"
       d="M 59,42 V 6 C 59,3.791 57.209,2 55,2 H 6 C 3.791,2 2,3.791 2,6 v 36 c 0,2.209 1.791,4 4,4 h 49 c 2.209,0 4,-1.791 4,-4 z" />
    <path
       style="fill:#a2dbf7;stroke:none;stroke-opacity:1"
       inkscape:connector-curvature="0"
       id="path254"
       d="M 58,2 H 6 C 3.791,2 2,3.791 2,6 V 38 H 62 V 6 C 62,3.791 60.209,2 58,2 Z" />
    <path
       style="fill:#b5e2f9;stroke:none;stroke-opacity:1"
       inkscape:connector-curvature="0"
       id="path258"
       d="M 55,2 H 6 C 3.791,2 2,3.791 2,6 V 38 H 59 V 6 C 59,3.791 57.209,2 55,2 Z" />
    <path
       style="fill:#8b9097;stroke:none;stroke-opacity:1"
       inkscape:connector-curvature="0"
       id="path262"
       d="m 32,30 h 6 v 8 h -6 z" />
    <path
       style="fill:#b9c0c9;stroke:none;stroke-opacity:1"
       inkscape:connector-curvature="0"
       id="path266"
       d="m 32,30 h 3 v 8 h -3 z" />
    <path
       style="fill:#b9c0c9;stroke:none;stroke-opacity:1"
       inkscape:connector-curvature="0"
       id="path270"
       d="m 30,26 h 10 v 4 H 30 Z" />
    <path
       style="fill:#c7cdd4;stroke:none;stroke-opacity:1"
       inkscape:connector-curvature="0"
       id="path274"
       d="m 30,26 h 7 v 4 h -7 z" />
    <path
       style="fill:#8b9097;stroke:none;stroke-opacity:1"
       inkscape:connector-curvature="0"
       id="path278"
       d="m 46,30 h 6 v 8 h -6 z" />
    <path
       style="fill:#b9c0c9;stroke:none;stroke-opacity:1"
       inkscape:connector-curvature="0"
       id="path282"
       d="m 46,30 h 3 v 8 h -3 z" />
    <path
       style="fill:#b9c0c9;stroke:none;stroke-opacity:1"
       inkscape:connector-curvature="0"
       id="path286"
       d="m 44,26 h 10 v 4 H 44 Z" />
    <path
       style="fill:#c7cdd4;stroke:none;stroke-opacity:1"
       inkscape:connector-curvature="0"
       id="path290"
       d="m 44,26 h 7 v 4 h -7 z" />
    <circle
       r="2"
       style="fill:#f7d881;stroke:none;stroke-opacity:1"
       id="circle302"
       cy="30"
       cx="21" />
    <circle
       r="2"
       style="fill:#f7d881;stroke:none;stroke-opacity:1"
       id="circle306"
       cy="10"
       cx="18" />
    <circle
       r="3"
       style="fill:#a8575d;stroke:none;stroke-opacity:1"
       id="circle310"
       cy="19"
       cx="9" />
    <ellipse
       style="fill:#e0747c;stroke:none;stroke-opacity:1"
       id="ellipse314"
       ry="2.5840001"
       rx="1.5"
       cy="19"
       cx="7.5" />
    <path
       style="fill:#acb3bc;stroke:none;stroke-opacity:1"
       inkscape:connector-curvature="0"
       id="path318"
       d="m 49,46 h 4 v 4 h -4 z" />
    <path
       style="fill:#919aa6;stroke:none;stroke-opacity:1"
       inkscape:connector-curvature="0"
       id="path322"
       d="M 24,46 H 40 V 56 H 24 Z" />
    <path
       style="fill:#acb3bc;stroke:none;stroke-opacity:1"
       inkscape:connector-curvature="0"
       id="path326"
       d="M 24,46 H 37 V 56 H 24 Z" />
    <path
       style="fill:#58616c;stroke:none;stroke-opacity:1"
       inkscape:connector-curvature="0"
       id="path330"
       d="M 44,62 H 20 v -4 c 0,-1.105 0.895,-2 2,-2 h 20 c 1.105,0 2,0.895 2,2 z" />
    <path
       style="fill:#758190;stroke:none;stroke-opacity:1"
       inkscape:connector-curvature="0"
       id="path334"
       d="M 39,56 H 22 c -1.105,0 -2,0.895 -2,2 v 4 h 21 v -4 c 0,-1.105 -0.895,-2 -2,-2 z" />
    <path
       style="stroke:none;stroke-opacity:1"
       inkscape:connector-curvature="0"
       id="path338"
       d="M 58,47 H 6 C 3.243,47 1,44.757 1,42 V 6 C 1,3.243 3.243,1 6,1 h 52 c 2.757,0 5,2.243 5,5 v 36 c 0,2.757 -2.243,5 -5,5 z M 6,3 C 4.346,3 3,4.346 3,6 v 36 c 0,1.654 1.346,3 3,3 h 52 c 1.654,0 3,-1.346 3,-3 V 6 C 61,4.346 59.654,3 58,3 Z" />
    <path
       style="stroke:none;stroke-opacity:1"
       inkscape:connector-curvature="0"
       id="path342"
       d="m 2,37 h 60 v 2 H 2 Z" />
    <path
       style="stroke:none;stroke-opacity:1"
       inkscape:connector-curvature="0"
       id="path346"
       d="m 23,46 h 2 v 10 h -2 z" />
    <path
       style="stroke:none;stroke-opacity:1"
       inkscape:connector-curvature="0"
       id="path350"
       d="m 39,46 h 2 v 10 h -2 z" />
    <path
       style="stroke:none;stroke-opacity:1"
       inkscape:connector-curvature="0"
       id="path354"
       d="M 44,63 H 20 c -0.553,0 -1,-0.447 -1,-1 v -4 c 0,-1.654 1.346,-3 3,-3 h 20 c 1.654,0 3,1.346 3,3 v 4 c 0,0.553 -0.447,1 -1,1 z M 21,61 h 22 v -3 c 0,-0.552 -0.448,-1 -1,-1 H 22 c -0.552,0 -1,0.448 -1,1 z" />
    <path
       style="stroke:none;stroke-opacity:1"
       inkscape:connector-curvature="0"
       id="path358"
       d="m 56,41 h 2 v 2 h -2 z" />
    <path
       style="stroke:none;stroke-opacity:1"
       inkscape:connector-curvature="0"
       id="path362"
       d="m 52,41 h 2 v 2 h -2 z" />
    <path
       style="stroke:none;stroke-opacity:1"
       inkscape:connector-curvature="0"
       id="path366"
       d="m 48,41 h 2 v 2 h -2 z" />
    <path
       style="stroke:none;stroke-opacity:1"
       inkscape:connector-curvature="0"
       id="path370"
       d="m 53,51 h -4 c -0.553,0 -1,-0.447 -1,-1 v -4 h 2 v 3 h 2 v -3 h 2 v 4 c 0,0.553 -0.447,1 -1,1 z" />
    <path
       style="stroke:none;stroke-opacity:1"
       inkscape:connector-curvature="0"
       id="path374"
       d="m 63,63 h -8 c -2.757,0 -5,-2.243 -5,-5 v -8 h 2 v 8 c 0,1.654 1.346,3 3,3 h 8 z" />
    <path
       style="stroke:none;stroke-opacity:1"
       inkscape:connector-curvature="0"
       id="path378"
       d="m 21,33 c -1.654,0 -3,-1.346 -3,-3 0,-1.654 1.346,-3 3,-3 1.654,0 3,1.346 3,3 0,1.654 -1.346,3 -3,3 z m 0,-4 c -0.552,0 -1,0.449 -1,1 0,0.551 0.448,1 1,1 0.552,0 1,-0.449 1,-1 0,-0.551 -0.448,-1 -1,-1 z" />
    <path
       style="stroke:none;stroke-opacity:1"
       inkscape:connector-curvature="0"
       id="path382"
       d="m 18,13 c -1.654,0 -3,-1.346 -3,-3 0,-1.654 1.346,-3 3,-3 1.654,0 3,1.346 3,3 0,1.654 -1.346,3 -3,3 z m 0,-4 c -0.552,0 -1,0.449 -1,1 0,0.551 0.448,1 1,1 0.552,0 1,-0.449 1,-1 0,-0.551 -0.448,-1 -1,-1 z" />
    <path
       style="stroke:none;stroke-opacity:1"
       inkscape:connector-curvature="0"
       id="path386"
       d="m 9,23 c -2.206,0 -4,-1.794 -4,-4 0,-2.206 1.794,-4 4,-4 2.206,0 4,1.794 4,4 0,2.206 -1.794,4 -4,4 z m 0,-6 c -1.103,0 -2,0.897 -2,2 0,1.103 0.897,2 2,2 1.103,0 2,-0.897 2,-2 0,-1.103 -0.897,-2 -2,-2 z" />
    <path
       style="stroke:none;stroke-width:0.99945235;stroke-opacity:1"
       inkscape:connector-curvature="0"
       id="path390"
       d="m 10.322313,21.746556 1.328,-1.494 8.995374,7.995888 -1.328,1.494 z" />
    <path
       style="stroke:none;stroke-width:0.99984896;stroke-opacity:1"
       inkscape:connector-curvature="0"
       id="path394"
       d="m 10.290199,16.292801 5.998895,-5.998895 1.414,1.414 -5.998895,5.998895 z" />
    <path
       style="stroke:none;stroke-opacity:1"
       inkscape:connector-curvature="0"
       id="path410"
       d="m 31,30 h 2 v 8 h -2 z" />
    <path
       style="stroke:none;stroke-opacity:1"
       inkscape:connector-curvature="0"
       id="path414"
       d="m 37,30 h 2 v 8 h -2 z" />
    <path
       style="stroke:none;stroke-opacity:1"
       inkscape:connector-curvature="0"
       id="path422"
       d="m 45,30 h 2 v 8 h -2 z" />
    <path
       style="stroke:none;stroke-opacity:1"
       inkscape:connector-curvature="0"
       id="path426"
       d="m 51,30 h 2 v 8 h -2 z" />
    <path
       style="stroke:none;stroke-opacity:1"
       inkscape:connector-curvature="0"
       id="path418"
       d="M 40,31 H 30 c -0.553,0 -1,-0.448 -1,-1 v -4 c 0,-0.552 0.447,-1 1,-1 h 10 c 0.553,0 1,0.448 1,1 v 4 c 0,0.552 -0.447,1 -1,1 z m -9,-2 h 8 v -2 h -8 z" />
    <path
       style="stroke:none;stroke-opacity:1"
       inkscape:connector-curvature="0"
       id="path430"
       d="M 54,31 H 44 c -0.553,0 -1,-0.448 -1,-1 v -4 c 0,-0.552 0.447,-1 1,-1 h 10 c 0.553,0 1,0.448 1,1 v 4 c 0,0.552 -0.447,1 -1,1 z m -9,-2 h 8 v -2 h -8 z" />
    <g
       transform="matrix(0.63105261,0,0,0.63105261,15.515553,2.5390374)"
       id="g3070">
      <path
         inkscape:connector-curvature="0"
         id="path1178"
         style="fill:#000000;fill-opacity:1;fill-rule:nonzero;stroke:none;stroke-width:0.35260302"
         d="m 44.013065,14.444265 c -0.154802,0.446293 -0.40937,0.839231 -0.659716,1.235028 -0.102962,0.162464 -0.17312,0.345747 -0.271493,0.511418 -0.135045,0.227616 -0.278205,0.450836 -0.426652,0.669911 -0.16326,0.241837 -0.318062,0.493503 -0.510921,0.710777 -0.202738,0.228829 -0.43476,0.43578 -0.676646,0.623754 -0.09204,0.0713 -0.246122,0.06276 -0.378323,0.09227 -0.102241,-0.321096 -0.09663,-0.600977 -0.0035,-0.885914 0.05078,-0.15522 0.0744,-0.320186 0.09978,-0.482467 0.03754,-0.241306 0.140695,-0.438886 0.32193,-0.608206 0.08146,-0.07615 0.1019,-0.21438 0.176647,-0.301414 0.210512,-0.244377 0.419598,-0.493328 0.657604,-0.709685 0.27009,-0.245666 0.563813,-0.467093 0.859998,-0.682004 0.2151,-0.15632 0.448511,-0.287648 0.678056,-0.423512 0.0515,-0.03072 0.119534,-0.03337 0.223899,-0.06022 -0.03717,0.127726 -0.05924,0.220524 -0.09064,0.31025 m 3.694223,-4.326718 c 0.123402,-0.3382758 0.27574,-0.6673739 0.437228,-0.9893689 0.108954,-0.2165798 0.277144,-0.4041559 0.3794,-0.623049 0.05643,-0.1210131 0.09519,-0.3317527 0.03072,-0.4101135 C 48.438651,7.9546096 48.43266,7.8077328 48.410436,7.657386 48.374406,7.4169905 48.307816,7.3703069 48.094877,7.4705002 c -0.423478,0.1990213 -0.878333,0.2011829 -1.330018,0.1999314 -0.205582,-7.053e-4 -0.31628,0.047745 -0.386101,0.230801 -0.02655,0.069855 -0.07721,0.1306457 -0.118813,0.1988317 -0.02048,0.089726 -0.03186,0.1785428 -0.06204,0.2601536 -0.06242,0.1664452 -0.132238,0.3305013 -0.204861,0.492938 -0.273617,0.6100375 -0.440752,1.2527991 -0.599427,1.8993341 -0.04092,0.164283 -0.146346,0.311881 -0.194622,0.475235 -0.118131,0.39728 -0.21931,0.799422 -0.328984,1.199062 -0.05078,0.184345 -0.09909,0.219424 -0.263415,0.125184 -0.294057,-0.168607 -0.615643,-0.202093 -0.930167,-0.166066 -0.478129,0.05499 -0.952026,0.165346 -1.393134,0.365429 -0.395619,0.179453 -0.732355,0.45225 -1.080021,0.714023 -0.440755,0.331791 -0.80852,0.713314 -1.117401,1.163235 -0.393503,0.572737 -0.640327,1.201743 -0.713667,1.891188 -0.0691,0.656122 -0.0095,1.298356 0.206606,1.931876 0.212636,0.620512 0.693219,0.905274 1.254915,1.106961 0.495055,0.178201 0.976358,0.02162 1.439678,-0.127346 0.40937,-0.131518 0.781014,-0.354014 1.053576,-0.710216 0.167849,-0.219462 0.34624,-0.430736 0.525029,-0.641665 0.02465,-0.02882 0.09344,-0.05973 0.113883,-0.04649 0.07968,0.05173 0.186545,0.107095 0.214381,0.185596 0.162197,0.456058 0.49188,0.791099 0.798997,1.141517 0.144222,0.164246 0.31135,0.308809 0.471785,0.45803 0.09272,0.08593 0.207326,0.102772 0.312753,0.03489 0.191816,-0.123364 0.376919,-0.258864 0.564165,-0.38987 0.09909,-0.0691 0.09238,-0.140733 0.02768,-0.239296 -0.08461,-0.129546 -0.158329,-0.269217 -0.217186,-0.412654 -0.124123,-0.300656 -0.175585,-0.610038 -0.12765,-0.940357 0.07475,-0.521536 0.124123,-1.046735 0.187948,-1.569716 0.02351,-0.19557 0.05465,-0.390579 0.08885,-0.584511 0.04266,-0.242254 0.09378,-0.483033 0.138913,-0.724706 0.03716,-0.198453 0.06136,-0.399814 0.108233,-0.595722 0.08252,-0.348059 0.183359,-0.691773 0.266221,-1.040038 0.05146,-0.216883 0.07368,-0.441036 0.12765,-0.657217 0.09625,-0.385324 0.197087,-0.769945 0.312033,-1.149838 0.145625,-0.480317 0.294436,-0.960422 0.466494,-1.431497" />
      <path
         inkscape:connector-curvature="0"
         id="path1180"
         style="fill:#000000;fill-opacity:1;fill-rule:nonzero;stroke:none;stroke-width:0.35260302"
         d="m 37.226166,13.940819 c -0.02768,0.335772 -0.04373,0.673157 -0.09204,1.005839 -0.03842,0.262884 -0.111418,0.52157 -0.180894,0.778826 -0.139292,0.514486 -0.333914,1.010704 -0.614941,1.461892 -0.308885,0.495301 -0.671355,0.951184 -1.230583,1.195042 -0.0631,0.02768 -0.135765,0.03641 -0.205582,0.04812 -0.117752,0.01934 -0.166407,-0.02768 -0.179112,-0.153248 -0.08605,-0.868147 0.05184,-1.702686 0.324396,-2.526861 0.165004,-0.498229 0.467552,-0.917755 0.714728,-1.368556 0.167128,-0.305548 0.379043,-0.586696 0.590962,-0.908695 0.205203,0.04611 0.428412,0.09951 0.65302,0.146384 0.179832,0.03754 0.233759,0.156433 0.220031,0.321248 m 1.527121,-1.525395 c -0.30149,-0.07865 -0.615996,-0.133149 -0.926993,-0.145057 -0.333914,-0.01289 -0.669945,0.04122 -1.005975,0.05499 -0.05571,0.0025 -0.116008,-0.04775 -0.170996,-0.07956 -0.119876,-0.07004 -0.231674,-0.189427 -0.358261,-0.206947 -0.323675,-0.04471 -0.630808,0.03527 -0.917827,0.206757 -0.511626,0.30661 -0.904781,0.746952 -1.244334,1.212601 -0.620584,0.850091 -1.087431,1.78625 -1.261264,2.841662 -0.03375,0.203876 -0.04479,0.411911 -0.05711,0.618714 -0.01403,0.235162 -0.04232,0.473404 -0.0201,0.706226 0.02465,0.260495 0.04759,0.543471 0.166066,0.766524 0.112139,0.21146 0.341688,0.362888 0.528551,0.531658 0.129774,0.117259 0.312033,0.193409 0.404084,0.332322 0.256703,0.387689 0.601892,0.592126 1.063801,0.625024 0.351207,-0.04501 0.672413,-0.147938 0.985527,-0.351131 0.379752,-0.246236 0.750338,-0.489908 1.082489,-0.801046 0.420304,-0.393116 0.777139,-0.834327 1.076498,-1.320075 0.189009,-0.306609 0.345215,-0.63479 0.501755,-0.960065 0.123402,-0.256361 0.250331,-0.5154 0.329667,-0.786942 0.102241,-0.35007 0.166066,-0.712222 0.232014,-1.071878 0.07475,-0.40722 0.13751,-0.817121 0.198529,-1.226704 0.06769,-0.452463 -0.161136,-0.830732 -0.606128,-0.947058" />
      <path
         inkscape:connector-curvature="0"
         id="path1182"
         style="fill:#000000;fill-opacity:1;fill-rule:nonzero;stroke:none;stroke-width:0.35260302"
         d="m 33.912401,12.293 c 0.07547,-0.08791 0.209791,-0.238424 0.184762,-0.279343 -0.08958,-0.144336 -0.142099,-0.337896 -0.342371,-0.394 -0.328985,-0.09189 -0.655489,-0.05154 -0.977768,0.02465 -0.427001,0.100952 -0.820508,0.286169 -1.169231,0.549216 -0.228147,0.172248 -0.429823,0.38081 -0.638564,0.57781 -0.08605,0.0807 -0.156206,0.178012 -0.241533,0.259244 -0.03375,0.03224 -0.08957,0.0416 -0.135386,0.06117 -0.01669,-0.04198 -0.0416,-0.08267 -0.049,-0.126474 -0.04054,-0.243847 -0.07653,-0.488072 -0.114225,-0.732461 0.01024,-0.0053 0.02086,-0.011 0.03148,-0.01631 -0.06136,-0.123213 -0.107891,-0.257272 -0.187227,-0.367628 -0.621991,-0.865432 -1.351175,-0.474675 -1.550041,0.435074 -0.174561,0.800693 -0.348363,1.566652 -0.487299,2.373511 -0.121999,0.710955 -0.288786,1.428043 -0.235541,2.158179 0.0416,0.577458 0.06242,1.173005 0.07755,1.753356 0.01251,0.452811 0.280328,0.904883 0.710496,1.091022 0.554643,0.240092 1.164293,0.109257 1.174518,-0.563142 0.0083,-0.586521 0.0061,-0.914864 0.192157,-1.480543 0.130114,-0.395092 0.236262,-0.807921 0.344836,-1.209536 0.111077,-0.409196 0.307103,-0.778618 0.527141,-1.135168 0.133642,-0.216732 0.307482,-0.408669 0.439697,-0.626117 0.335318,-0.550699 0.809222,-0.979782 1.257733,-1.426283 0.309226,-0.307899 0.678057,-0.555561 1.022195,-0.82763 0.05006,-0.03959 0.125868,-0.0523 0.165725,-0.09841" />
      <path
         inkscape:connector-curvature="0"
         id="path1188"
         style="fill:#000000;fill-opacity:1;fill-rule:nonzero;stroke:none;stroke-width:0.35260302"
         d="m 51.774566,13.823511 c -0.154803,0.446288 -0.409374,0.83923 -0.65972,1.235062 -0.102962,0.162463 -0.17312,0.34567 -0.271493,0.511414 -0.135045,0.227578 -0.278547,0.450802 -0.426652,0.669877 -0.16326,0.241874 -0.318404,0.493537 -0.510921,0.710776 -0.202738,0.228829 -0.43476,0.435818 -0.676646,0.623789 -0.09204,0.07126 -0.246122,0.06276 -0.378702,0.09223 -0.1019,-0.321134 -0.09625,-0.600974 -0.0035,-0.88588 0.05078,-0.15522 0.07441,-0.320186 0.09978,-0.482501 0.03754,-0.241306 0.140696,-0.438848 0.321931,-0.608206 0.08146,-0.07611 0.1019,-0.214342 0.176647,-0.301376 0.210512,-0.244378 0.419598,-0.493325 0.657604,-0.709685 0.26516,-0.241533 0.553938,-0.459159 0.844483,-0.670438 0.01934,-0.01782 0.03914,-0.03527 0.05855,-0.05302 0.117751,-0.110016 0.264097,-0.193068 0.407606,-0.270317 0.03261,-0.01782 0.07475,-0.03489 0.116008,-0.04577 0.03754,-0.02199 0.0744,-0.0441 0.111418,-0.06602 0.05146,-0.03072 0.119534,-0.03337 0.223899,-0.06026 -0.03717,0.127763 -0.05924,0.220524 -0.09064,0.31025 m 4.316919,4.518853 c -0.153021,0.02731 -0.309947,0.04194 -0.458034,0.08536 -0.145625,0.0427 -0.278546,0.128446 -0.424179,0.170807 -0.242936,0.07073 -0.675588,-0.08464 -0.786657,-0.266298 -0.196746,-0.322385 -0.273617,-0.691985 -0.308165,-1.050372 -0.04266,-0.440118 0.01252,-0.889509 0.02238,-1.334883 0.0057,-0.252911 -0.0035,-0.506375 0.0099,-0.758906 0.01479,-0.299745 0,-0.610921 0.0804,-0.895118 0.08851,-0.321286 0.261974,-0.619946 0.406549,-0.924595 0.09663,-0.204103 0.245781,-0.374303 0.24506,-0.630456 0,-0.305206 -0.05324,-0.565329 -0.274678,-0.790218 -0.274678,-0.279305 -0.588846,-0.44809 -0.975652,-0.547415 -0.791948,-0.203686 -1.55639,-0.155561 -2.296151,0.164284 -0.694273,0.300086 -1.308509,0.722165 -1.844467,1.268313 -0.49717,0.506549 -0.935806,1.053224 -1.331429,1.639567 -0.47178,0.698296 -0.84413,1.437633 -1.062393,2.257329 -0.131518,0.492976 -0.0076,0.936549 0.170654,1.377233 0.177367,0.438708 0.480245,0.792194 0.829321,1.105516 0.149873,0.1344 0.331108,0.19394 0.532432,0.155903 0.379399,-0.07179 0.7655,-0.124427 1.133617,-0.235883 0.26588,-0.08051 0.539838,-0.203345 0.752102,-0.377716 0.365315,-0.299594 0.69216,-0.646921 1.020083,-0.988841 0.141036,-0.147067 0.238347,-0.335052 0.3674,-0.494948 0.04691,-0.05825 0.127309,-0.08957 0.192878,-0.133187 0.02503,0.06856 0.05324,0.136259 0.07369,0.206227 0.0099,0.03337 0,0.07164 0.0072,0.106564 0.06595,0.383704 0.09378,0.779536 0.211574,1.146417 0.09557,0.298115 0.347302,0.518999 0.611767,0.699919 0.357199,0.244757 0.77643,0.19011 1.173812,0.2352 0.09943,0.01138 0.213698,0.03034 0.299708,-0.0057 0.283476,-0.118472 0.574742,-0.233721 0.830026,-0.400876 0.276423,-0.181083 0.515859,-0.418255 0.769733,-0.633519 0.02351,-0.0201 0.03224,-0.05844 0.04725,-0.08847 -0.0083,-0.02048 -0.01745,-0.04092 -0.02579,-0.06113" />
    </g>
    <text
       id="text3074"
       y="21.513212"
       x="28.851822"
       style="font-style:normal;font-weight:normal;font-size:5px;line-height:1.25;font-family:sans-serif;letter-spacing:0px;word-spacing:0px;fill:#000000;fill-opacity:1;stroke:none;stroke-width:0.125"
       xml:space="preserve"><tspan
         style="font-style:normal;font-variant:normal;font-weight:600;font-stretch:normal;font-family:Museo;-inkscape-font-specification:'Museo Semi-Bold';stroke-width:0.125"
         y="21.513212"
         x="28.851822"
         id="tspan3072"
         sodipodi:role="line">Laboratory</tspan></text>
    <rect
       y="16.793451"
       x="25.641909"
       height="0.25"
       width="32.067799"
       id="rect3080"
       style="opacity:1;fill:#000000;fill-opacity:1;stroke:none;stroke-width:0.49968442;stroke-miterlimit:4;stroke-dasharray:none;stroke-opacity:1" />
  </g>
</svg>
